Coordinates
version=1
nRows=29
nColumns=24
inDegrees=yes

Units are S.I. units (second, meters, Newtons, ...)
Angles are in degrees.

endheader
time	pelvis_tilt	pelvis_list	pelvis_rotation	pelvis_tx	pelvis_ty	pelvis_tz	hip_flexion_r	hip_adduction_r	hip_rotation_r	knee_angle_r	ankle_angle_r	subtalar_angle_r	mtp_angle_r	hip_flexion_l	hip_adduction_l	hip_rotation_l	knee_angle_l	ankle_angle_l	subtalar_angle_l	mtp_angle_l	lumbar_extension	lumbar_bending	lumbar_rotation
      0.98416667	     -0.78780023	      1.89604866	     -0.46367681	     -0.04600286	      1.04586389	      0.26566526	    -14.90617251	      0.18535182	     -4.35822936	    -13.57721894	     18.61957092	      4.10484826	      6.00904122	     24.48699377	      2.51745646	     -0.36670020	     -7.32766678	      4.57273458	      6.33931790	      6.04199124	    -15.32025971	     -0.81870282	      2.11288352
      0.98833333	     -0.75982004	      1.96493118	     -0.53680649	     -0.03990153	      1.04519843	      0.26541455	    -14.96903713	      0.01909942	     -4.43320894	    -14.24550778	     18.54595449	      4.35590229	      6.47532787	     24.59703140	      2.65599573	     -0.18136374	     -8.17340677	      4.20194082	      6.02651014	      6.19448733	    -15.28576458	     -0.98195365	      2.06208506
      0.99250000	     -0.69017922	      2.02647523	     -0.60798162	     -0.03380091	      1.04465929	      0.26518071	    -15.07966193	     -0.13056653	     -4.42820901	    -14.88951950	     18.29358844	      4.37709872	     10.34019701	     24.66750129	      2.78411101	     -0.00059737	     -9.05048909	      3.81481474	      5.68486833	      7.33844303	    -15.31444645	     -1.13653598	      2.00949277
      0.99666667	     -0.65064208	      2.09700365	     -0.66525001	     -0.02766157	      1.04409798	      0.26488590	    -15.11734137	     -0.30409294	     -4.53466930	    -15.63370975	     18.13266070	      4.64679569	     10.40011786	     24.79241629	      2.92083767	      0.12052035	     -9.99413771	      3.48552323	      5.49418207	      7.33499184	    -15.29964416	     -1.30366572	      1.96662558
      1.00083333	     -0.60442397	      2.17139342	     -0.72359616	     -0.02151960	      1.04360014	      0.26456822	    -15.13906559	     -0.48753709	     -4.63716677	    -16.42106788	     17.93987142	      4.90720283	     10.51401391	     24.90072737	      3.06465838	      0.28960434	    -10.93363050	      3.14626291	      5.18863706	      7.32784488	    -15.29556600	     -1.47152848	      1.90027051
      1.00500000	     -0.50844968	      2.26178896	     -0.77797080	     -0.01537706	      1.04324361	      0.26422817	    -15.19888661	     -0.69320021	     -4.75237593	    -17.23418603	     17.71341878	      5.17002209	     11.06392371	     24.93861094	      3.23265358	      0.51213245	    -11.85161011	      2.78228740	      4.74321359	      7.29800334	    -15.36030378	     -1.65702432	      1.80946320
      1.00916667	     -0.51070306	      2.32114075	     -0.82304426	     -0.00917340	      1.04276846	      0.26385847	    -15.12708016	     -0.86485067	     -4.84079211	    -18.09762074	     17.39024280	      5.36528099	     11.22518331	     25.11300883	      3.35706960	      0.63889944	    -12.85085542	      2.51384055	      4.54206816	      7.28240686	    -15.28129513	     -1.80905194	      1.76659300
      1.01333333	     -0.44532633	      2.39096507	     -0.85639540	     -0.00301178	      1.04246028	      0.26342376	    -15.10581310	     -1.05550451	     -4.96103126	    -18.99204117	     17.00728028	      5.52846378	     14.31414490	     25.18656218	      3.51461003	      0.89570925	    -13.80005845	      2.22882069	      4.07933535	      6.96962060	    -15.30355055	     -1.95231468	      1.67620674
      1.01750000	     -0.38804068	      2.48290113	     -0.91648566	      0.00321815	      1.04219406	      0.26305076	    -15.04023992	     -1.28757166	     -5.10494404	    -19.96155003	     16.63012645	      5.83914229	     14.39049407	     25.27230363	      3.66106051	      0.95274639	    -14.76881944	      2.00312086	      3.92310754	      6.95279813	    -15.30338367	     -2.15289881	      1.61982950
      1.02166667	     -0.33262736	      2.55865706	     -0.95447214	      0.00940843	      1.04196477	      0.26258728	    -14.94033122	     -1.50659824	     -5.26619312	    -20.99127249	     16.25087188	      6.12366757	     14.56720635	     25.34945571	      3.81141867	      1.10479967	    -15.71917004	      1.80039106	      3.62612706	      6.91537101	    -15.31287391	     -2.30510441	      1.54315844
      1.02583333	     -0.26950140	      2.64331668	     -0.99562575	      0.01562550	      1.04181357	      0.26211662	    -14.82498877	     -1.74510513	     -5.43509569	    -22.05651820	     15.78615744	      6.42098540	     14.82158440	     25.39662414	      3.96946744	      1.24829725	    -16.63603403	      1.63589942	      3.34619497	      6.86004575	    -15.32318615	     -2.47384790	      1.46718870
      1.03000000	     -0.17772734	      2.71276516	     -1.01800803	      0.02181762	      1.04177158	      0.26159504	    -14.72854457	     -1.96520822	     -5.58888374	    -23.12232761	     15.16092137	      6.60334127	     18.15983472	     25.39373608	      4.12954409	      1.46051036	    -17.52247062	      1.54019566	      2.98279890	      6.13266173	    -15.38668354	     -2.61843177	      1.36982957
      1.03416667	     -0.12100675	      2.80434234	     -1.07805072	      0.02806485	      1.04172946	      0.26116210	    -14.54877686	     -2.22713476	     -5.72579908	    -24.27646893	     14.57988603	      6.88141803	     18.22476502	     25.41393595	      4.27298964	      1.48934568	    -18.38392954	      1.45958329	      2.88158464	      6.11401884	    -15.37302998	     -2.82146724	      1.32120477
      1.03833333	     -0.03681415	      2.88779994	     -1.11356252	      0.03424430	      1.04175812	      0.26062902	    -14.36101436	     -2.49362654	     -5.92520149	    -25.49769027	     14.00930876	      7.20072133	     18.38430896	     25.38690388	      4.43138702	      1.59179355	    -19.20892985	      1.42110312	      2.66855588	      6.07176367	    -15.41666874	     -2.97306398	      1.24829704
      1.04250000	      0.02121669	      2.97115936	     -1.15126200	      0.04043224	      1.04181438	      0.26011088	    -14.12080103	     -2.76243384	     -6.09241219	    -26.74984321	     13.37126338	      7.50516563	     18.70065139	     25.36285627	      4.58920611	      1.69506143	    -19.99134531	      1.41242917	      2.42601092	      5.98710673	    -15.43006064	     -3.15457710	      1.16474119
      1.04666667	      0.10656582	      3.06379440	     -1.18628426	      0.04659899	      1.04196313	      0.25956316	    -13.87594319	     -3.05688442	     -6.29604072	    -28.05594564	     12.67011769	      7.80529876	     19.05709901	     25.27418972	      4.75796491	      1.78627966	    -20.69863172	      1.44670011	      2.26329483	      5.89116343	    -15.46172703	     -3.30692204	      1.09181228
      1.05083333	      0.20079319	      3.13913390	     -1.23021342	      0.05272691	      1.04219918	      0.25905562	    -13.62080071	     -3.32682434	     -6.42157542	    -29.35954692	     11.80099999	      7.93298064	     22.76819607	     25.15446018	      4.90467117	      1.86771758	    -21.37312456	      1.56283939	      2.10896557	      4.85544620	    -15.52273799	     -3.46805273	      1.01504062
      1.05500000	      0.30777383	      3.21086307	     -1.27456153	      0.05881727	      1.04250210	      0.25856365	    -13.34815093	     -3.59707916	     -6.54309770	    -30.71383550	     10.97222895	      8.07834148	     22.77444463	     25.00437106	      5.04042027	      1.89713567	    -22.01263106	      1.70281086	      1.99300822	      4.85276005	    -15.59534966	     -3.62771507	      0.96484267
      1.05916667	      0.34351342	      3.30826582	     -1.31330093	      0.06490723	      1.04271671	      0.25801451	    -12.94985765	     -3.92095200	     -6.72408686	    -32.16204222	     10.19755699	      8.40725510	     22.84545107	     24.89109920	      5.21432421	      1.97953215	    -22.56803134	      1.82737698	      1.84386811	      4.82572251	    -15.57965514	     -3.79572203	      0.89055163
      1.06333333	      0.45628102	      3.38282648	     -1.36407806	      0.07090710	      1.04312438	      0.25753158	    -12.61980785	     -4.20751077	     -6.82544896	    -33.59414640	      9.31223241	      8.52947804	     22.87035490	     24.68322588	      5.35323235	      2.00396167	    -23.10534251	      2.03625449	      1.72095787	      4.81643075	    -15.67375817	     -3.95661158	      0.82895652
      1.06750000	      0.51720790	      3.49351341	     -1.39643176	      0.07689455	      1.04350451	      0.25697068	    -12.19703144	     -4.55255525	     -6.98828993	    -35.08860562	      8.42706546	      8.78318124	     23.67577244	     24.47086511	      5.56272033	      2.17878973	    -23.51260224	      2.16039156	      1.40515780	      4.44961001	    -15.70115276	     -4.14165416	      0.70806540
      1.07166667	      0.61363597	      3.57056333	     -1.46420453	      0.08280980	      1.04396366	      0.25653531	    -11.78292144	     -4.85442632	     -7.06204835	    -36.59751307	      7.52581145	      8.87497875	     23.69158668	     24.23626379	      5.69143631	      2.14902887	    -23.95919894	      2.44407328	      1.35586284	      4.44211001	    -15.77688427	     -4.29807960	      0.65691335
      1.07583333	      0.65182621	      3.67034039	     -1.53531407	      0.08873256	      1.04438895	      0.25610748	    -11.27604825	     -5.18598920	     -7.12389636	    -38.13965357	      6.59747691	      9.00120017	     23.72765977	     24.02015565	      5.84894633	      2.17039009	    -24.31403508	      2.70196282	      1.29809917	      4.41553689	    -15.76536350	     -4.47844629	      0.60045624
      1.08000000	      0.72211448	      3.75997627	     -1.60734736	      0.09455655	      1.04489977	      0.25569538	    -10.77764833	     -5.50589898	     -7.17681833	    -39.69576540	      5.67368069	      9.06277716	     23.75099094	     23.75913802	      5.99708624	      2.18548978	    -24.64405051	      2.97939051	      1.18701180	      4.38633784	    -15.80939343	     -4.64903606	      0.54117918
      1.08416667	      0.74612586	      3.84566641	     -1.68085495	      0.10033754	      1.04536365	      0.25529413	    -10.19916249	     -5.81984474	     -7.21214141	    -41.27867632	      4.75390306	      9.06412677	     23.77368296	     23.53248603	      6.14026678	      2.20555765	    -24.94007803	      3.24119709	      1.04163111	      4.32568244	    -15.80395060	     -4.81954134	      0.48567913
      1.08833333	      0.82397742	      3.93500192	     -1.77210597	      0.10605919	      1.04597211	      0.25494656	     -9.66179974	     -6.13560809	     -7.21552327	    -42.84533166	      3.81707513	      9.04075343	     23.76162830	     23.21878072	      6.28287009	      2.21888721	    -25.17709635	      3.56527092	      0.93921847	      4.29428649	    -15.86158267	     -4.98356874	      0.42545614
      1.09250000	      0.86913868	      4.02527624	     -1.87133534	      0.11173734	      1.04656787	      0.25463993	     -9.06189508	     -6.44805453	     -7.20211884	    -44.42328884	      2.89697940	      8.93972516	     23.72467765	     22.92370372	      6.41978689	      2.22021265	    -25.37392523	      3.86249226	      0.81855863	      4.25296163	    -15.88467546	     -5.16150834	      0.37073764
      1.09666667	      0.90329205	      4.11469389	     -1.98056938	      0.11736652	      1.04718149	      0.25436849	     -8.42816199	     -6.75386306	     -7.16378748	    -45.99767237	      2.00144342	      8.77976327	     23.65480912	     22.62502075	      6.55201384	      2.21707910	    -25.53655279	      4.16166287	      0.69339508	      4.20456587	    -15.89438760	     -5.33376358	      0.32437057
      1.10083333	      0.92083772	      4.19032135	     -2.08882345	      0.12291634	      1.04779119	      0.25412228	     -7.75576140	     -7.03347513	     -7.11026208	    -47.56429605	      1.14363916	      8.52403831	     23.49916401	     22.34330219	      6.66707465	      2.20883475	    -25.69145423	      4.43809945	      0.55167700	      4.11908850	    -15.90388437	     -5.49947454	      0.30058023
